# xmcd CD database file
#
# Track frame offsets:
#	150
#	12022
#	23310
#	38665
#	49395
#	62665
#	73852
#	83342
#	103257
#	113475
#	122862
#	137767
#	149557
#	159262
#	172642
#	188267
#	201305
#	214535
#	231047
#	245912
#	270677
#	285080
#	295120
#	307872
#
# Disc length: 4276 seconds
#
# Revision: 0
# Processed by: cddbd v1.5.2PL0 Copyright (c) Steve Scherf et al.
# Submitted via: CDex 1.51
#
DISCID=3e10b218
DTITLE=J.J. Cale - Anyway The Wind Blows The Anthology CD1
DYEAR=1900
DGENRE=Blues
TTITLE0=Call Me The Breeze
TTITLE1=Crazy Mama
TTITLE2=Magnolia
TTITLE3=After Midnight
TTITLE4=Lies
TTITLE5=Changes
TTITLE6=If You're Ever In Oklahoma
TTITLE7=Midnight In Memhis
TTITLE8=Cajun Moon
TTITLE9=Rock And Roll Records
TTITLE10=Anyway The Wind Blows
TTITLE11=Crying
TTITLE12=Everlovin' Woman
TTITLE13=I Got The Same Old Blues
TTITLE14=Woke Up This Morning
TTITLE15=Cocaine
TTITLE16=The Woman That Got Away
TTITLE17=Ride Me High
TTITLE18=Hey Baby
TTITLE19=Durango
TTITLE20=I'll Make Love To You Anytime
TTITLE21=Don't Cry Sister
TTITLE22=Thirteen Days
TTITLE23=Things Ain't Simple
EXTD=
EXTT0=
EXTT1=
EXTT2=
EXTT3=
EXTT4=
EXTT5=
EXTT6=
EXTT7=
EXTT8=
EXTT9=
EXTT10=
EXTT11=
EXTT12=
EXTT13=
EXTT14=
EXTT15=
EXTT16=
EXTT17=
EXTT18=
EXTT19=
EXTT20=
EXTT21=
EXTT22=
EXTT23=
PLAYORDER=
